<?xml version="1.0" encoding="UTF-8"?>
<svg id="_图层_1" data-name="图层 1" xmlns="http://www.w3.org/2000/svg" viewBox="0 0 24 24">
    <defs>
        <style>
            .cls-1 {
            stroke-width: 0px;
            }
        </style>
    </defs>
    <path class="cls-1"
          d="m5.46,18.89l1.05-1.05c-.06-.06-.12-.11-.18-.17-1.55-1.55-2.33-3.44-2.33-5.67s.78-4.12,2.33-5.67c.04-.04.09-.08.13-.12.01-.01.03-.03.04-.04l-1.04-1.05s-.07.06-.1.09c-.1.1-.19.2-.29.3-.12.13-.24.26-.35.39-.07.08-.13.17-.2.25-.13.16-.25.33-.37.5-.04.06-.08.12-.11.18-.13.2-.26.41-.38.62-.01.03-.03.06-.04.08-.13.25-.26.5-.37.77,0,0,0,.02-.01.03-.12.28-.22.56-.32.85,0,.03-.02.06-.03.1-.08.27-.15.54-.21.81-.02.08-.02.17-.04.26-.04.23-.08.45-.1.68-.03.27-.04.54-.04.81,0,.06,0,.11,0,.17s0,.11,0,.17c0,.27.01.54.04.81.02.22.06.44.1.66.02.09.02.19.04.28.05.25.12.49.19.73.02.06.03.12.05.18.07.23.16.45.25.68.03.07.05.15.08.22.08.18.17.35.25.52.06.11.11.23.17.34.07.12.15.24.22.36.09.15.18.3.28.45.07.1.14.19.21.28.11.15.23.31.35.45.08.1.18.19.26.29.11.12.23.25.35.36.03.03.07.06.1.09Z"/>
    <path class="cls-1"
          d="m9.25,14.88s-.05-.04-.07-.06c-.08-.08-.15-.18-.22-.26-.06-.08-.14-.15-.19-.23-.15-.2-.27-.4-.37-.62,0-.02-.02-.03-.03-.04,0,0,0,0,0-.01-.1-.22-.18-.45-.24-.69,0-.04-.03-.07-.03-.11-.06-.27-.09-.55-.09-.85,0-.88.26-1.66.77-2.34.05-.07.11-.13.16-.19.08-.1.15-.2.25-.3.02-.02.05-.04.07-.06.04-.04.06-.08.1-.11l-1.05-1.05s-.07.05-.1.09c-.14.13-.25.28-.38.42-.11.12-.22.25-.31.38-.19.27-.35.55-.5.86,0,.02-.02.03-.03.05-.05.12-.1.24-.14.36-.09.24-.17.49-.22.74-.01.06-.02.12-.03.19-.05.32-.09.64-.09.97,0,.34.04.66.09.98.01.06.02.12.03.18.05.25.13.5.22.74.05.12.09.25.15.37.15.33.33.63.53.92.08.11.18.21.26.32.13.16.26.31.4.46.04.03.08.06.11.09l1.05-1.05s-.07-.08-.1-.12Z"/>
    <path class="cls-1"
          d="m21.49,11.83c0-.27-.01-.54-.04-.81-.02-.22-.06-.44-.1-.66-.02-.09-.02-.19-.04-.28-.05-.25-.12-.49-.19-.73-.02-.06-.03-.12-.05-.18-.07-.23-.16-.45-.25-.68-.03-.07-.05-.15-.08-.22-.08-.18-.17-.35-.25-.52-.06-.11-.11-.23-.17-.34-.07-.12-.15-.24-.22-.36-.09-.15-.18-.3-.28-.45-.07-.1-.14-.19-.21-.28-.11-.15-.23-.31-.35-.45-.08-.1-.18-.19-.26-.29-.11-.12-.23-.25-.35-.36-.03-.03-.07-.06-.1-.09l-1.05,1.05c.06.06.12.11.18.17,1.55,1.55,2.33,3.44,2.33,5.67s-.78,4.12-2.33,5.67c-.04.04-.09.08-.13.12-.01.01-.03.03-.04.04l1.04,1.05s.07-.06.1-.09c.1-.1.19-.2.29-.3.12-.13.24-.26.35-.39.07-.08.13-.17.2-.25.13-.16.25-.33.37-.5.04-.06.08-.12.11-.18.13-.2.26-.41.38-.62.01-.03.03-.06.04-.08.13-.25.26-.5.37-.77,0,0,0-.02.01-.03.12-.28.22-.56.32-.85,0-.03.02-.06.03-.1.08-.27.15-.54.21-.81.02-.08.02-.17.04-.26.04-.23.08-.45.1-.68.03-.27.04-.54.04-.81,0-.06,0-.11,0-.17s0-.11,0-.17Z"/>
    <path class="cls-1"
          d="m13.06,13.06c.14-.14.23-.29.31-.45.01-.03.02-.05.03-.08.06-.16.1-.33.1-.52,0,0,0,0,0,0s0,0,0,0c0-.18-.04-.35-.1-.51-.01-.03-.03-.06-.04-.09-.07-.16-.17-.3-.3-.44,0,0-.02-.01-.03-.02-.29-.28-.63-.43-1.03-.43s-.76.15-1.06.44c-.14.14-.23.29-.31.45-.01.03-.02.05-.03.08-.06.16-.1.33-.1.52,0,0,0,0,0,0s0,0,0,0c0,.18.04.35.1.51.01.03.03.06.04.09.07.16.17.3.3.44,0,0,.02.01.03.02.29.28.63.43,1.03.43s.76-.15,1.06-.44Z"/>
    <path class="cls-1"
          d="m16.19,15.55c.11-.12.22-.25.31-.38.19-.27.35-.55.5-.86,0-.02.02-.03.03-.05.05-.12.1-.24.14-.36.09-.24.17-.49.22-.74.01-.06.02-.12.03-.19.05-.32.09-.64.09-.97,0-.34-.04-.66-.09-.98-.01-.06-.02-.12-.03-.18-.05-.25-.13-.5-.22-.74-.05-.12-.09-.25-.15-.37-.15-.33-.33-.63-.53-.92-.08-.11-.18-.21-.26-.32-.13-.16-.26-.31-.4-.46-.04-.03-.08-.06-.11-.09l-1.05,1.05s.07.08.1.12c.02.02.05.04.07.06.08.08.15.18.22.26.06.08.14.15.19.23.15.2.27.4.37.62,0,.02.02.03.03.04,0,0,0,0,0,.01.1.22.18.45.24.69,0,.04.03.07.03.11.06.27.09.55.09.85,0,.88-.26,1.66-.77,2.34-.05.07-.11.13-.16.19-.08.1-.15.2-.25.3-.02.02-.05.04-.07.06-.04.04-.06.08-.1.11l1.05,1.05s.07-.05.1-.09c.14-.13.25-.28.38-.42Z"/>
</svg>