<svg width="24" height="24" viewBox="0 0 24 24" fill="none" xmlns="http://www.w3.org/2000/svg">
    <mask id="mask0_96_310" style="mask-type:alpha" maskUnits="userSpaceOnUse" x="0" y="0" width="24" height="24">
        <rect width="24" height="24" fill="#D9D9D9"/>
    </mask>
    <g mask="url(#mask0_96_310)">
        <path d="M2.5 21.0384V4.30772C2.5 3.80259 2.675 3.37502 3.025 3.02502C3.375 2.67502 3.80257 2.50002 4.3077 2.50002H19.6923C20.1974 2.50002 20.625 2.67502 20.975 3.02502C21.325 3.37502 21.5 3.80259 21.5 4.30772V15.6923C21.5 16.1974 21.325 16.625 20.975 16.975C20.625 17.325 20.1974 17.5 19.6923 17.5H6.03845L2.5 21.0384ZM5.4 16H19.6923C19.7692 16 19.8397 15.9679 19.9038 15.9038C19.9679 15.8397 20 15.7692 20 15.6923V4.30772C20 4.23079 19.9679 4.16027 19.9038 4.09615C19.8397 4.03205 19.7692 4 19.6923 4H4.3077C4.23077 4 4.16024 4.03205 4.09613 4.09615C4.03202 4.16027 3.99998 4.23079 3.99998 4.30772V17.3846L5.4 16Z"
              fill="#1F1B16"/>
        <path d="M9.14626 12.5L10.0957 10.8341C9.64943 10.8212 9.27192 10.6525 8.96315 10.3283C8.65438 10.004 8.5 9.61813 8.5 9.17072C8.5 8.70872 8.66118 8.31476 8.98355 7.98886C9.30591 7.66295 9.69502 7.5 10.1509 7.5C10.6067 7.5 10.9954 7.66295 11.317 7.98886C11.6386 8.31476 11.7993 8.70872 11.7993 9.17072C11.7993 9.32724 11.7813 9.47185 11.7454 9.60454C11.7094 9.73724 11.6562 9.86379 11.5858 9.98419L10.1581 12.5H9.14626ZM12.8469 12.5L13.7939 10.8341C13.3477 10.8212 12.9706 10.6525 12.6626 10.3283C12.3546 10.004 12.2007 9.61813 12.2007 9.17072C12.2007 8.70872 12.3614 8.31476 12.683 7.98886C13.0046 7.66295 13.3933 7.5 13.8491 7.5C14.305 7.5 14.6941 7.66295 15.0164 7.98886C15.3388 8.31476 15.5 8.70872 15.5 9.17072C15.5 9.32724 15.482 9.47185 15.446 9.60454C15.41 9.73724 15.3568 9.86379 15.2865 9.98419L13.8563 12.5H12.8469Z"
              fill="#1F1B16"/>
    </g>
</svg>
