<svg width="24" height="24" viewBox="0 0 24 24" fill="none" xmlns="http://www.w3.org/2000/svg">
<mask id="mask0_96_260" style="mask-type:alpha" maskUnits="userSpaceOnUse" x="0" y="0" width="24" height="24">
<rect width="24" height="24" fill="#D9D9D9"/>
</mask>
<g mask="url(#mask0_96_260)">
<path d="M1.7981 19.3076V17.0846C1.7981 16.5692 1.93111 16.1093 2.19715 15.7048C2.46316 15.3003 2.81843 14.9856 3.26295 14.7607C4.2133 14.2959 5.16891 13.9375 6.1298 13.6856C7.0907 13.4337 8.14679 13.3077 9.29807 13.3077C10.4494 13.3077 11.5054 13.4337 12.4663 13.6856C13.4272 13.9375 14.3828 14.2959 15.3332 14.7607C15.7777 14.9856 16.133 15.3003 16.399 15.7048C16.665 16.1093 16.798 16.5692 16.798 17.0846V19.3076H1.7981ZM18.798 19.3076V16.9615C18.798 16.3051 18.6373 15.6795 18.3159 15.0848C17.9944 14.49 17.5385 13.9797 16.9481 13.5538C17.6186 13.6538 18.2551 13.8087 18.8576 14.0183C19.4602 14.2279 20.0352 14.4756 20.5826 14.7615C21.0993 15.0372 21.4983 15.362 21.7797 15.7361C22.0611 16.1102 22.2018 16.5187 22.2018 16.9615V19.3076H18.798ZM9.29807 11.6922C8.33559 11.6922 7.51164 11.3495 6.82622 10.6641C6.1408 9.97873 5.7981 9.15478 5.7981 8.1923C5.7981 7.2298 6.1408 6.40585 6.82622 5.72045C7.51164 5.03503 8.33559 4.69232 9.29807 4.69232C10.2606 4.69232 11.0845 5.03503 11.7699 5.72045C12.4553 6.40585 12.798 7.2298 12.798 8.1923C12.798 9.15478 12.4553 9.97873 11.7699 10.6641C11.0845 11.3495 10.2606 11.6922 9.29807 11.6922ZM17.9326 8.1923C17.9326 9.15478 17.5899 9.97873 16.9045 10.6641C16.2191 11.3495 15.3951 11.6922 14.4326 11.6922C14.3198 11.6922 14.1762 11.6794 14.0019 11.6538C13.8275 11.6282 13.6839 11.6 13.5711 11.5692C13.9655 11.0951 14.2686 10.5691 14.4803 9.99127C14.6921 9.41344 14.798 8.81338 14.798 8.1911C14.798 7.56883 14.69 6.97116 14.474 6.39807C14.258 5.82501 13.957 5.29745 13.5711 4.8154C13.7147 4.76411 13.8583 4.73078 14.0019 4.7154C14.1455 4.70001 14.289 4.69232 14.4326 4.69232C15.3951 4.69232 16.2191 5.03503 16.9045 5.72045C17.5899 6.40585 17.9326 7.2298 17.9326 8.1923ZM3.29807 17.8076H15.2981V17.0846C15.2981 16.8756 15.2458 16.6897 15.1413 16.5269C15.0368 16.3641 14.8711 16.2217 14.6442 16.0999C13.8211 15.6756 12.9737 15.3541 12.1019 15.1355C11.2301 14.9169 10.2955 14.8076 9.29807 14.8076C8.30064 14.8076 7.36602 14.9169 6.49422 15.1355C5.62244 15.3541 4.775 15.6756 3.95192 16.0999C3.725 16.2217 3.5593 16.3641 3.4548 16.5269C3.35031 16.6897 3.29807 16.8756 3.29807 17.0846V17.8076ZM9.29807 10.1923C9.84807 10.1923 10.3189 9.99646 10.7106 9.6048C11.1022 9.21313 11.2981 8.7423 11.2981 8.1923C11.2981 7.6423 11.1022 7.17146 10.7106 6.7798C10.3189 6.38813 9.84807 6.1923 9.29807 6.1923C8.74807 6.1923 8.27724 6.38813 7.88557 6.7798C7.4939 7.17146 7.29807 7.6423 7.29807 8.1923C7.29807 8.7423 7.4939 9.21313 7.88557 9.6048C8.27724 9.99646 8.74807 10.1923 9.29807 10.1923Z" fill="#1F1B16"/>
</g>
</svg>
