<svg width="24" height="24" viewBox="0 0 24 24" fill="none" xmlns="http://www.w3.org/2000/svg">
<mask id="mask0_96_283" style="mask-type:alpha" maskUnits="userSpaceOnUse" x="0" y="0" width="24" height="24">
<rect width="24" height="24" fill="#D9D9D9"/>
</mask>
<g mask="url(#mask0_96_283)">
<path d="M15.8919 19.5C15.1434 19.5 14.508 19.2392 13.9855 18.7175C13.4631 18.1959 13.2019 17.5625 13.2019 16.8173C13.2019 16.0668 13.4637 15.4288 13.9872 14.9035C14.5107 14.3781 15.1463 14.1154 15.8942 14.1154C16.1139 14.1154 16.3237 14.1455 16.5234 14.2058C16.7232 14.266 16.9109 14.3571 17.0865 14.4789V6.50003H21.5V8.23078H18.5865V16.8173C18.5865 17.5625 18.3245 18.1959 17.8006 18.7175C17.2766 19.2392 16.6404 19.5 15.8919 19.5ZM3.5 15.3846V13.8846H11.0192V15.3846H3.5ZM3.5 11.6923V10.1923H14.8942V11.6923H3.5ZM3.5 8.00001V6.50003H14.8942V8.00001H3.5Z" fill="#1F1B16"/>
</g>
</svg>
