<svg width="24" height="24" viewBox="0 0 24 24" fill="none" xmlns="http://www.w3.org/2000/svg">
<mask id="mask0_96_153" style="mask-type:alpha" maskUnits="userSpaceOnUse" x="0" y="0" width="24" height="24">
<rect width="24" height="24" fill="#D9D9D9"/>
</mask>
<g mask="url(#mask0_96_153)">
<path d="M7.8077 19C7.30898 19 6.88302 18.8233 6.52982 18.4701C6.17661 18.1169 6 17.691 6 17.1923V7.8077C6 7.30898 6.17661 6.88302 6.52982 6.52982C6.88302 6.17661 7.30898 6 7.8077 6H17.1923C17.691 6 18.1169 6.17661 18.4701 6.52982C18.8233 6.88302 19 7.30898 19 7.8077V17.1923C19 17.691 18.8233 18.1169 18.4701 18.4701C18.1169 18.8233 17.691 19 17.1923 19H7.8077ZM7.8077 17.5H17.1923C17.282 17.5 17.3557 17.4711 17.4134 17.4134C17.4711 17.3557 17.5 17.282 17.5 17.1923V7.8077C17.5 7.71795 17.4711 7.64423 17.4134 7.58652C17.3557 7.52882 17.282 7.49998 17.1923 7.49998H7.8077C7.71795 7.49998 7.64423 7.52882 7.58652 7.58652C7.52882 7.64423 7.49998 7.71795 7.49998 7.8077V17.1923C7.49998 17.282 7.52882 17.3557 7.58652 17.4134C7.64423 17.4711 7.71795 17.5 7.8077 17.5Z" fill="#1F1B16"/>
</g>
</svg>
