<svg width="1080" height="1080" viewBox="0 0 1080 1080" fill="none" xmlns="http://www.w3.org/2000/svg">
<rect width="1080" height="1080" rx="256" fill="#FFF8F4"/>
<g filter="url(#filter0_d_220_112)">
<path d="M623.906 407.085C608.687 329.263 580.43 256.24 541.556 190.478L398.153 277.961L307.191 333.463C278.935 350.743 267.786 386.145 279.761 417.406C286.663 435.526 292.149 454.367 295.924 473.808C300.112 495.348 302.354 517.669 302.354 540.53C302.354 563.391 300.112 585.711 295.924 607.252C292.149 626.693 286.663 645.533 279.761 663.654C267.845 694.915 278.935 730.316 307.191 747.597L398.153 803.099C427.294 753.777 448.53 698.995 459.915 640.613L623.906 673.914C632.341 630.773 636.765 586.191 636.765 540.53C636.765 494.868 632.341 450.227 623.906 407.085Z" fill="#FFCE00"/>
<path d="M787.896 373.724L623.905 407.085C626.206 418.786 628.152 430.606 629.863 442.487C626.854 423.166 608.804 410.146 589.868 413.986L491.945 433.906C474.602 437.446 462.746 454.067 465.105 471.888C468.055 494.328 469.588 517.249 469.588 540.47C469.588 574.731 466.285 608.212 459.914 640.553C448.529 698.935 427.293 753.717 398.152 803.039L541.497 890.522L624.613 941.223C658.709 962.044 702.774 948.364 720.176 912.003C750.85 847.86 773.856 779.158 787.896 707.216C798.455 653.274 804 597.532 804 540.47C804 483.408 798.455 427.606 787.896 373.664V373.724ZM632.517 463.787C631.869 457.907 631.161 452.027 630.335 446.147C631.161 452.027 631.869 457.847 632.517 463.787ZM634.995 490.608C634.464 483.408 633.815 476.268 633.107 469.188C633.815 476.328 634.464 483.468 634.995 490.608Z" fill="#FF8B00"/>
<path d="M787.896 373.724C773.857 301.782 750.851 233.14 720.176 168.998C702.774 132.636 658.709 118.956 624.613 139.777L541.556 190.478C580.43 256.24 608.686 329.263 623.905 407.086C632.341 450.227 636.765 494.869 636.765 540.53C636.765 574.791 634.288 608.392 629.45 641.274C626.796 659.574 638.358 676.855 656.173 680.455L787.837 707.216C798.396 653.274 803.941 597.532 803.941 540.47C803.941 483.408 798.396 427.606 787.837 373.664L787.896 373.724Z" fill="#FFB000"/>
</g>
<defs>
<filter id="filter0_d_220_112" x="215" y="80" width="649" height="941" filterUnits="userSpaceOnUse" color-interpolation-filters="sRGB">
<feFlood flood-opacity="0" result="BackgroundImageFix"/>
<feColorMatrix in="SourceAlpha" type="matrix" values="0 0 0 0 0 0 0 0 0 0 0 0 0 0 0 0 0 0 127 0" result="hardAlpha"/>
<feOffset dy="10"/>
<feGaussianBlur stdDeviation="30"/>
<feComposite in2="hardAlpha" operator="out"/>
<feColorMatrix type="matrix" values="0 0 0 0 1 0 0 0 0 0.6 0 0 0 0 0 0 0 0 0.45 0"/>
<feBlend mode="normal" in2="BackgroundImageFix" result="effect1_dropShadow_220_112"/>
<feBlend mode="normal" in="SourceGraphic" in2="effect1_dropShadow_220_112" result="shape"/>
</filter>
</defs>
</svg>
