<svg width="18" height="28" viewBox="0 0 18 28" fill="none" xmlns="http://www.w3.org/2000/svg">
<path d="M11.872 9.4499C11.3542 6.79578 10.3927 4.30537 9.06997 2.06256L4.19046 5.04615L1.09535 6.93902C0.1339 7.52837 -0.24546 8.73572 0.162003 9.80187C0.396845 10.4199 0.583513 11.0624 0.711975 11.7254C0.854486 12.4601 0.930759 13.2213 0.930759 14.001C0.930759 14.7807 0.854486 15.5419 0.711975 16.2765C0.583513 16.9396 0.396845 17.5821 0.162003 18.2001C-0.243453 19.2663 0.1339 20.4736 1.09535 21.063L4.19046 22.9558C5.18202 21.2737 5.90461 19.4054 6.292 17.4143L11.872 18.55C12.1591 17.0787 12.3096 15.5583 12.3096 14.001C12.3096 12.4437 12.1591 10.9212 11.872 9.4499Z" fill="#FFB951"/>
<path d="M17.452 8.31217L11.872 9.44994C11.9503 9.84898 12.0165 10.2521 12.0747 10.6573C11.9724 9.99836 11.3582 9.5543 10.7138 9.68527L7.38188 10.3647C6.79176 10.4854 6.38832 11.0522 6.46861 11.66C6.56897 12.4253 6.62116 13.207 6.62116 13.999C6.62116 15.1675 6.50875 16.3093 6.29197 17.4123C5.90458 19.4034 5.18199 21.2717 4.19043 22.9538L9.06794 25.9374L11.8961 27.6666C13.0563 28.3767 14.5556 27.9101 15.1478 26.67C16.1915 24.4825 16.9743 22.1394 17.452 19.6858C17.8113 17.8461 18 15.9451 18 13.999C18 12.0529 17.8113 10.1498 17.452 8.31012V8.31217ZM12.1651 11.3837C12.143 11.1832 12.1189 10.9827 12.0908 10.7821C12.1189 10.9827 12.143 11.1812 12.1651 11.3837ZM12.2494 12.2985C12.2313 12.0529 12.2092 11.8094 12.1851 11.5679C12.2092 11.8114 12.2313 12.0549 12.2494 12.2985Z" fill="#633F00"/>
<path d="M17.4522 8.31216C16.9744 5.85858 16.1916 3.51755 15.1479 1.33C14.5558 0.0899093 13.0564 -0.37666 11.8962 0.333425L9.07007 2.0626C10.3928 4.3054 11.3543 6.79581 11.8721 9.44993C12.1592 10.9213 12.3097 12.4438 12.3097 14.001C12.3097 15.1695 12.2254 16.3155 12.0608 17.4369C11.9705 18.061 12.3639 18.6503 12.9701 18.7731L17.4501 19.6858C17.8094 17.8461 17.9981 15.9451 17.9981 13.999C17.9981 12.0529 17.8094 10.1498 17.4501 8.31011L17.4522 8.31216Z" fill="#FFB951"/>
<path opacity="0.42" d="M17.4522 8.31216C16.9744 5.85858 16.1916 3.51755 15.1479 1.33C14.5558 0.0899093 13.0564 -0.37666 11.8962 0.333425L9.07007 2.0626C10.3928 4.3054 11.3543 6.79581 11.8721 9.44993C12.1592 10.9213 12.3097 12.4438 12.3097 14.001C12.3097 15.1695 12.2254 16.3155 12.0608 17.4369C11.9705 18.061 12.3639 18.6503 12.9701 18.7731L17.4501 19.6858C17.8094 17.8461 17.9981 15.9451 17.9981 13.999C17.9981 12.0529 17.8094 10.1498 17.4501 8.31011L17.4522 8.31216Z" fill="#633F00"/>
</svg>
